<?xml version="1.0" encoding="UTF-8" standalone="no"?>
<!DOCTYPE svg PUBLIC "-//W3C//DTD SVG 1.1//EN"
 "http://www.w3.org/Graphics/SVG/1.1/DTD/svg11.dtd">
<!-- Generated by graphviz version 2.43.0 (0)
 -->
<!-- Title: dependencies Pages: 1 -->
<svg width="1375pt" height="620pt"
 viewBox="0.00 0.00 1374.53 620.00" xmlns="http://www.w3.org/2000/svg" xmlns:xlink="http://www.w3.org/1999/xlink">
<g id="graph0" class="graph" transform="scale(1 1) rotate(0) translate(4 616)">
<title>dependencies</title>
<polygon fill="white" stroke="transparent" points="-4,4 -4,-616 1370.53,-616 1370.53,4 -4,4"/>
<!-- src/base/NonCopyable.h -->
<g id="node1" class="node">
<title>src/base/NonCopyable.h</title>
<path fill="#f8fafc" stroke="#64748b" d="M841.03,-36C841.03,-36 715.03,-36 715.03,-36 709.03,-36 703.03,-30 703.03,-24 703.03,-24 703.03,-12 703.03,-12 703.03,-6 709.03,0 715.03,0 715.03,0 841.03,0 841.03,0 847.03,0 853.03,-6 853.03,-12 853.03,-12 853.03,-24 853.03,-24 853.03,-30 847.03,-36 841.03,-36"/>
<text text-anchor="middle" x="778.03" y="-15.2" font-family="Helvetica,sans-Serif" font-size="11.00">src/base/NonCopyable.h</text>
</g>
<!-- src/base/ScopedFd.h -->
<g id="node2" class="node">
<title>src/base/ScopedFd.h</title>
<path fill="#f8fafc" stroke="#64748b" d="M831.03,-108C831.03,-108 725.03,-108 725.03,-108 719.03,-108 713.03,-102 713.03,-96 713.03,-96 713.03,-84 713.03,-84 713.03,-78 719.03,-72 725.03,-72 725.03,-72 831.03,-72 831.03,-72 837.03,-72 843.03,-78 843.03,-84 843.03,-84 843.03,-96 843.03,-96 843.03,-102 837.03,-108 831.03,-108"/>
<text text-anchor="middle" x="778.03" y="-87.2" font-family="Helvetica,sans-Serif" font-size="11.00">src/base/ScopedFd.h</text>
</g>
<!-- src/base/ScopedFd.h&#45;&gt;src/base/NonCopyable.h -->
<g id="edge1" class="edge">
<title>src/base/ScopedFd.h&#45;&gt;src/base/NonCopyable.h</title>
<path fill="none" stroke="#475569" d="M778.03,-71.7C778.03,-63.39 778.03,-53.28 778.03,-44.14"/>
<polygon fill="#475569" stroke="#475569" points="780.83,-44.1 778.03,-36.1 775.23,-44.1 780.83,-44.1"/>
</g>
<!-- src/tudou/http/HttpContext.h -->
<g id="node3" class="node">
<title>src/tudou/http/HttpContext.h</title>
<path fill="#f8fafc" stroke="#64748b" d="M180.03,-540C180.03,-540 28.03,-540 28.03,-540 22.03,-540 16.03,-534 16.03,-528 16.03,-528 16.03,-516 16.03,-516 16.03,-510 22.03,-504 28.03,-504 28.03,-504 180.03,-504 180.03,-504 186.03,-504 192.03,-510 192.03,-516 192.03,-516 192.03,-528 192.03,-528 192.03,-534 186.03,-540 180.03,-540"/>
<text text-anchor="middle" x="104.03" y="-519.2" font-family="Helvetica,sans-Serif" font-size="11.00">src/tudou/http/HttpContext.h</text>
</g>
<!-- src/tudou/http/HttpRequest.h -->
<g id="node4" class="node">
<title>src/tudou/http/HttpRequest.h</title>
<path fill="#f8fafc" stroke="#64748b" d="M170.03,-468C170.03,-468 16.03,-468 16.03,-468 10.03,-468 4.03,-462 4.03,-456 4.03,-456 4.03,-444 4.03,-444 4.03,-438 10.03,-432 16.03,-432 16.03,-432 170.03,-432 170.03,-432 176.03,-432 182.03,-438 182.03,-444 182.03,-444 182.03,-456 182.03,-456 182.03,-462 176.03,-468 170.03,-468"/>
<text text-anchor="middle" x="93.03" y="-447.2" font-family="Helvetica,sans-Serif" font-size="11.00">src/tudou/http/HttpRequest.h</text>
</g>
<!-- src/tudou/http/HttpContext.h&#45;&gt;src/tudou/http/HttpRequest.h -->
<g id="edge2" class="edge">
<title>src/tudou/http/HttpContext.h&#45;&gt;src/tudou/http/HttpRequest.h</title>
<path fill="none" stroke="#475569" d="M101.31,-503.7C100.01,-495.39 98.42,-485.28 96.98,-476.14"/>
<polygon fill="#475569" stroke="#475569" points="99.73,-475.57 95.72,-468.1 94.19,-476.44 99.73,-475.57"/>
</g>
<!-- src/tudou/http/HttpResponse.h -->
<g id="node5" class="node">
<title>src/tudou/http/HttpResponse.h</title>
<path fill="#f8fafc" stroke="#64748b" d="M374.03,-468C374.03,-468 212.03,-468 212.03,-468 206.03,-468 200.03,-462 200.03,-456 200.03,-456 200.03,-444 200.03,-444 200.03,-438 206.03,-432 212.03,-432 212.03,-432 374.03,-432 374.03,-432 380.03,-432 386.03,-438 386.03,-444 386.03,-444 386.03,-456 386.03,-456 386.03,-462 380.03,-468 374.03,-468"/>
<text text-anchor="middle" x="293.03" y="-447.2" font-family="Helvetica,sans-Serif" font-size="11.00">src/tudou/http/HttpResponse.h</text>
</g>
<!-- src/tudou/http/HttpServer.h -->
<g id="node6" class="node">
<title>src/tudou/http/HttpServer.h</title>
<path fill="#f8fafc" stroke="#64748b" d="M456.03,-612C456.03,-612 312.03,-612 312.03,-612 306.03,-612 300.03,-606 300.03,-600 300.03,-600 300.03,-588 300.03,-588 300.03,-582 306.03,-576 312.03,-576 312.03,-576 456.03,-576 456.03,-576 462.03,-576 468.03,-582 468.03,-588 468.03,-588 468.03,-600 468.03,-600 468.03,-606 462.03,-612 456.03,-612"/>
<text text-anchor="middle" x="384.03" y="-591.2" font-family="Helvetica,sans-Serif" font-size="11.00">src/tudou/http/HttpServer.h</text>
</g>
<!-- src/tudou/http/HttpServer.h&#45;&gt;src/tudou/http/HttpContext.h -->
<g id="edge3" class="edge">
<title>src/tudou/http/HttpServer.h&#45;&gt;src/tudou/http/HttpContext.h</title>
<path fill="none" stroke="#475569" d="M315.89,-575.97C274.9,-565.72 222.63,-552.65 180.26,-542.06"/>
<polygon fill="#475569" stroke="#475569" points="180.91,-539.33 172.47,-540.11 179.56,-544.77 180.91,-539.33"/>
</g>
<!-- src/tudou/http/HttpServer.h&#45;&gt;src/tudou/http/HttpRequest.h -->
<g id="edge4" class="edge">
<title>src/tudou/http/HttpServer.h&#45;&gt;src/tudou/http/HttpRequest.h</title>
<path fill="none" stroke="#475569" d="M299.64,-593.46C200.32,-592 44.16,-582.71 7.03,-540 -3.47,-527.92 -0.77,-517.97 7.03,-504 14.6,-490.44 27.23,-479.92 40.5,-471.96"/>
<polygon fill="#475569" stroke="#475569" points="41.89,-474.39 47.48,-468.02 39.14,-469.51 41.89,-474.39"/>
</g>
<!-- src/tudou/http/HttpServer.h&#45;&gt;src/tudou/http/HttpResponse.h -->
<g id="edge5" class="edge">
<title>src/tudou/http/HttpServer.h&#45;&gt;src/tudou/http/HttpResponse.h</title>
<path fill="none" stroke="#475569" d="M383.91,-575.9C383.02,-556.91 379.26,-526.03 365.03,-504 357.01,-491.57 344.98,-481.05 333.04,-472.74"/>
<polygon fill="#475569" stroke="#475569" points="334.27,-470.2 326.05,-468.11 331.17,-474.86 334.27,-470.2"/>
</g>
<!-- src/tudou/http/Router.h -->
<g id="node7" class="node">
<title>src/tudou/http/Router.h</title>
<path fill="#f8fafc" stroke="#64748b" d="M343.53,-540C343.53,-540 222.53,-540 222.53,-540 216.53,-540 210.53,-534 210.53,-528 210.53,-528 210.53,-516 210.53,-516 210.53,-510 216.53,-504 222.53,-504 222.53,-504 343.53,-504 343.53,-504 349.53,-504 355.53,-510 355.53,-516 355.53,-516 355.53,-528 355.53,-528 355.53,-534 349.53,-540 343.53,-540"/>
<text text-anchor="middle" x="283.03" y="-519.2" font-family="Helvetica,sans-Serif" font-size="11.00">src/tudou/http/Router.h</text>
</g>
<!-- src/tudou/http/HttpServer.h&#45;&gt;src/tudou/http/Router.h -->
<g id="edge6" class="edge">
<title>src/tudou/http/HttpServer.h&#45;&gt;src/tudou/http/Router.h</title>
<path fill="none" stroke="#475569" d="M359.32,-575.88C345.87,-566.55 329.09,-554.92 314.68,-544.94"/>
<polygon fill="#475569" stroke="#475569" points="316,-542.45 307.83,-540.19 312.81,-547.05 316,-542.45"/>
</g>
<!-- src/tudou/http/SslContext.h -->
<g id="node8" class="node">
<title>src/tudou/http/SslContext.h</title>
<path fill="#f8fafc" stroke="#64748b" d="M568.03,-540C568.03,-540 424.03,-540 424.03,-540 418.03,-540 412.03,-534 412.03,-528 412.03,-528 412.03,-516 412.03,-516 412.03,-510 418.03,-504 424.03,-504 424.03,-504 568.03,-504 568.03,-504 574.03,-504 580.03,-510 580.03,-516 580.03,-516 580.03,-528 580.03,-528 580.03,-534 574.03,-540 568.03,-540"/>
<text text-anchor="middle" x="496.03" y="-519.2" font-family="Helvetica,sans-Serif" font-size="11.00">src/tudou/http/SslContext.h</text>
</g>
<!-- src/tudou/http/HttpServer.h&#45;&gt;src/tudou/http/SslContext.h -->
<g id="edge7" class="edge">
<title>src/tudou/http/HttpServer.h&#45;&gt;src/tudou/http/SslContext.h</title>
<path fill="none" stroke="#475569" d="M411.43,-575.88C426.48,-566.47 445.3,-554.71 461.36,-544.67"/>
<polygon fill="#475569" stroke="#475569" points="463.23,-546.8 468.53,-540.19 460.26,-542.06 463.23,-546.8"/>
</g>
<!-- src/tudou/http/TlsConnection.h -->
<g id="node9" class="node">
<title>src/tudou/http/TlsConnection.h</title>
<path fill="#f8fafc" stroke="#64748b" d="M772.03,-540C772.03,-540 610.03,-540 610.03,-540 604.03,-540 598.03,-534 598.03,-528 598.03,-528 598.03,-516 598.03,-516 598.03,-510 604.03,-504 610.03,-504 610.03,-504 772.03,-504 772.03,-504 778.03,-504 784.03,-510 784.03,-516 784.03,-516 784.03,-528 784.03,-528 784.03,-534 778.03,-540 772.03,-540"/>
<text text-anchor="middle" x="691.03" y="-519.2" font-family="Helvetica,sans-Serif" font-size="11.00">src/tudou/http/TlsConnection.h</text>
</g>
<!-- src/tudou/http/HttpServer.h&#45;&gt;src/tudou/http/TlsConnection.h -->
<g id="edge8" class="edge">
<title>src/tudou/http/HttpServer.h&#45;&gt;src/tudou/http/TlsConnection.h</title>
<path fill="none" stroke="#475569" d="M458.74,-575.97C503.95,-565.66 561.69,-552.49 608.28,-541.87"/>
<polygon fill="#475569" stroke="#475569" points="609.08,-544.56 616.25,-540.05 607.83,-539.1 609.08,-544.56"/>
</g>
<!-- src/tudou/tcp/TcpServer.h -->
<g id="node21" class="node">
<title>src/tudou/tcp/TcpServer.h</title>
<path fill="#f8fafc" stroke="#64748b" d="M989.03,-540C989.03,-540 857.03,-540 857.03,-540 851.03,-540 845.03,-534 845.03,-528 845.03,-528 845.03,-516 845.03,-516 845.03,-510 851.03,-504 857.03,-504 857.03,-504 989.03,-504 989.03,-504 995.03,-504 1001.03,-510 1001.03,-516 1001.03,-516 1001.03,-528 1001.03,-528 1001.03,-534 995.03,-540 989.03,-540"/>
<text text-anchor="middle" x="923.03" y="-519.2" font-family="Helvetica,sans-Serif" font-size="11.00">src/tudou/tcp/TcpServer.h</text>
</g>
<!-- src/tudou/http/HttpServer.h&#45;&gt;src/tudou/tcp/TcpServer.h -->
<g id="edge9" class="edge">
<title>src/tudou/http/HttpServer.h&#45;&gt;src/tudou/tcp/TcpServer.h</title>
<path fill="none" stroke="#475569" d="M468.24,-582.12C550.93,-571.42 680.67,-554.63 793.03,-540 807.22,-538.15 822.28,-536.19 836.92,-534.27"/>
<polygon fill="#475569" stroke="#475569" points="837.44,-537.03 845.01,-533.22 836.71,-531.48 837.44,-537.03"/>
</g>
<!-- src/tudou/http/Router.h&#45;&gt;src/tudou/http/HttpRequest.h -->
<g id="edge10" class="edge">
<title>src/tudou/http/Router.h&#45;&gt;src/tudou/http/HttpRequest.h</title>
<path fill="none" stroke="#475569" d="M236.55,-503.88C209.54,-493.92 175.37,-481.34 147.15,-470.94"/>
<polygon fill="#475569" stroke="#475569" points="147.83,-468.21 139.36,-468.07 145.9,-473.46 147.83,-468.21"/>
</g>
<!-- src/tudou/http/Router.h&#45;&gt;src/tudou/http/HttpResponse.h -->
<g id="edge11" class="edge">
<title>src/tudou/http/Router.h&#45;&gt;src/tudou/http/HttpResponse.h</title>
<path fill="none" stroke="#475569" d="M285.5,-503.7C286.69,-495.39 288.13,-485.28 289.44,-476.14"/>
<polygon fill="#475569" stroke="#475569" points="292.23,-476.42 290.59,-468.1 286.68,-475.63 292.23,-476.42"/>
</g>
<!-- src/tudou/reactor/Channel.h -->
<g id="node10" class="node">
<title>src/tudou/reactor/Channel.h</title>
<path fill="#f8fafc" stroke="#64748b" d="M995.03,-180C995.03,-180 849.03,-180 849.03,-180 843.03,-180 837.03,-174 837.03,-168 837.03,-168 837.03,-156 837.03,-156 837.03,-150 843.03,-144 849.03,-144 849.03,-144 995.03,-144 995.03,-144 1001.03,-144 1007.03,-150 1007.03,-156 1007.03,-156 1007.03,-168 1007.03,-168 1007.03,-174 1001.03,-180 995.03,-180"/>
<text text-anchor="middle" x="922.03" y="-159.2" font-family="Helvetica,sans-Serif" font-size="11.00">src/tudou/reactor/Channel.h</text>
</g>
<!-- src/tudou/reactor/EventLoop.h -->
<g id="node12" class="node">
<title>src/tudou/reactor/EventLoop.h</title>
<path fill="#f8fafc" stroke="#64748b" d="M891.03,-324C891.03,-324 731.03,-324 731.03,-324 725.03,-324 719.03,-318 719.03,-312 719.03,-312 719.03,-300 719.03,-300 719.03,-294 725.03,-288 731.03,-288 731.03,-288 891.03,-288 891.03,-288 897.03,-288 903.03,-294 903.03,-300 903.03,-300 903.03,-312 903.03,-312 903.03,-318 897.03,-324 891.03,-324"/>
<text text-anchor="middle" x="811.03" y="-303.2" font-family="Helvetica,sans-Serif" font-size="11.00">src/tudou/reactor/EventLoop.h</text>
</g>
<!-- src/tudou/reactor/Channel.h&#45;&gt;src/tudou/reactor/EventLoop.h -->
<g id="edge12" class="edge">
<title>src/tudou/reactor/Channel.h&#45;&gt;src/tudou/reactor/EventLoop.h</title>
<path fill="none" stroke="#94a3b8" stroke-dasharray="5,2" d="M902,-180.03C889.28,-189.36 873.4,-201.89 862.03,-216 846.39,-235.41 834.93,-261.6 826.31,-280.54"/>
<polygon fill="#94a3b8" stroke="#94a3b8" points="823.71,-279.49 822.9,-287.92 828.8,-281.83 823.71,-279.49"/>
</g>
<!-- src/tudou/reactor/EpollPoller.h -->
<g id="node11" class="node">
<title>src/tudou/reactor/EpollPoller.h</title>
<path fill="#f8fafc" stroke="#64748b" d="M1032.03,-252C1032.03,-252 874.03,-252 874.03,-252 868.03,-252 862.03,-246 862.03,-240 862.03,-240 862.03,-228 862.03,-228 862.03,-222 868.03,-216 874.03,-216 874.03,-216 1032.03,-216 1032.03,-216 1038.03,-216 1044.03,-222 1044.03,-228 1044.03,-228 1044.03,-240 1044.03,-240 1044.03,-246 1038.03,-252 1032.03,-252"/>
<text text-anchor="middle" x="953.03" y="-231.2" font-family="Helvetica,sans-Serif" font-size="11.00">src/tudou/reactor/EpollPoller.h</text>
</g>
<!-- src/tudou/reactor/EpollPoller.h&#45;&gt;src/tudou/reactor/Channel.h -->
<g id="edge13" class="edge">
<title>src/tudou/reactor/EpollPoller.h&#45;&gt;src/tudou/reactor/Channel.h</title>
<path fill="none" stroke="#475569" d="M945.37,-215.7C941.61,-207.22 937.03,-196.86 932.92,-187.58"/>
<polygon fill="#475569" stroke="#475569" points="935.4,-186.29 929.6,-180.1 930.28,-188.55 935.4,-186.29"/>
</g>
<!-- src/tudou/reactor/EpollPoller.h&#45;&gt;src/tudou/reactor/EventLoop.h -->
<g id="edge14" class="edge">
<title>src/tudou/reactor/EpollPoller.h&#45;&gt;src/tudou/reactor/EventLoop.h</title>
<path fill="none" stroke="#475569" d="M924.06,-252.19C905.37,-261.9 880.7,-274.11 859.14,-284.35"/>
<polygon fill="#475569" stroke="#475569" points="857.7,-281.93 851.66,-287.88 860.09,-286.99 857.7,-281.93"/>
</g>
<!-- src/tudou/tcp/Socket.h -->
<g id="node19" class="node">
<title>src/tudou/tcp/Socket.h</title>
<path fill="#f8fafc" stroke="#64748b" d="M1207.03,-180C1207.03,-180 1091.03,-180 1091.03,-180 1085.03,-180 1079.03,-174 1079.03,-168 1079.03,-168 1079.03,-156 1079.03,-156 1079.03,-150 1085.03,-144 1091.03,-144 1091.03,-144 1207.03,-144 1207.03,-144 1213.03,-144 1219.03,-150 1219.03,-156 1219.03,-156 1219.03,-168 1219.03,-168 1219.03,-174 1213.03,-180 1207.03,-180"/>
<text text-anchor="middle" x="1149.03" y="-159.2" font-family="Helvetica,sans-Serif" font-size="11.00">src/tudou/tcp/Socket.h</text>
</g>
<!-- src/tudou/reactor/EpollPoller.h&#45;&gt;src/tudou/tcp/Socket.h -->
<g id="edge15" class="edge">
<title>src/tudou/reactor/EpollPoller.h&#45;&gt;src/tudou/tcp/Socket.h</title>
<path fill="none" stroke="#475569" d="M1000.73,-215.97C1028.71,-205.97 1064.19,-193.3 1093.44,-182.85"/>
<polygon fill="#475569" stroke="#475569" points="1094.53,-185.44 1101.12,-180.11 1092.64,-180.16 1094.53,-185.44"/>
</g>
<!-- src/tudou/reactor/EventLoop.h&#45;&gt;src/base/ScopedFd.h -->
<g id="edge16" class="edge">
<title>src/tudou/reactor/EventLoop.h&#45;&gt;src/base/ScopedFd.h</title>
<path fill="none" stroke="#475569" d="M808.39,-287.85C802.58,-250.21 788.7,-160.2 781.91,-116.15"/>
<polygon fill="#475569" stroke="#475569" points="784.67,-115.71 780.69,-108.23 779.14,-116.57 784.67,-115.71"/>
</g>
<!-- src/tudou/reactor/EventLoop.h&#45;&gt;src/tudou/reactor/Channel.h -->
<g id="edge17" class="edge">
<title>src/tudou/reactor/EventLoop.h&#45;&gt;src/tudou/reactor/Channel.h</title>
<path fill="none" stroke="#475569" d="M809.81,-287.92C813.86,-268.95 826.23,-238.08 844.03,-216 853.63,-204.09 866.43,-193.31 878.95,-184.63"/>
<polygon fill="#475569" stroke="#475569" points="880.75,-186.8 885.86,-180.03 877.65,-182.14 880.75,-186.8"/>
</g>
<!-- src/tudou/reactor/EventLoop.h&#45;&gt;src/tudou/reactor/EpollPoller.h -->
<g id="edge18" class="edge">
<title>src/tudou/reactor/EventLoop.h&#45;&gt;src/tudou/reactor/EpollPoller.h</title>
<path fill="none" stroke="#475569" d="M839.87,-287.88C858.61,-278.14 883.38,-265.87 905.01,-255.61"/>
<polygon fill="#475569" stroke="#475569" points="906.47,-258.01 912.51,-252.07 904.08,-252.95 906.47,-258.01"/>
</g>
<!-- src/tudou/timer/Timer.h -->
<g id="node22" class="node">
<title>src/tudou/timer/Timer.h</title>
<path fill="#f8fafc" stroke="#64748b" d="M599.03,-180C599.03,-180 477.03,-180 477.03,-180 471.03,-180 465.03,-174 465.03,-168 465.03,-168 465.03,-156 465.03,-156 465.03,-150 471.03,-144 477.03,-144 477.03,-144 599.03,-144 599.03,-144 605.03,-144 611.03,-150 611.03,-156 611.03,-156 611.03,-168 611.03,-168 611.03,-174 605.03,-180 599.03,-180"/>
<text text-anchor="middle" x="538.03" y="-159.2" font-family="Helvetica,sans-Serif" font-size="11.00">src/tudou/timer/Timer.h</text>
</g>
<!-- src/tudou/reactor/EventLoop.h&#45;&gt;src/tudou/timer/Timer.h -->
<g id="edge19" class="edge">
<title>src/tudou/reactor/EventLoop.h&#45;&gt;src/tudou/timer/Timer.h</title>
<path fill="none" stroke="#475569" d="M718.7,-296.14C656.08,-288.23 580.72,-274.37 558.03,-252 541.35,-235.56 537.27,-208.42 536.79,-188.42"/>
<polygon fill="#475569" stroke="#475569" points="539.59,-188.34 536.78,-180.34 533.99,-188.34 539.59,-188.34"/>
</g>
<!-- src/tudou/timer/TimerQueue.h -->
<g id="node23" class="node">
<title>src/tudou/timer/TimerQueue.h</title>
<path fill="#f8fafc" stroke="#64748b" d="M737.53,-252C737.53,-252 578.53,-252 578.53,-252 572.53,-252 566.53,-246 566.53,-240 566.53,-240 566.53,-228 566.53,-228 566.53,-222 572.53,-216 578.53,-216 578.53,-216 737.53,-216 737.53,-216 743.53,-216 749.53,-222 749.53,-228 749.53,-228 749.53,-240 749.53,-240 749.53,-246 743.53,-252 737.53,-252"/>
<text text-anchor="middle" x="658.03" y="-231.2" font-family="Helvetica,sans-Serif" font-size="11.00">src/tudou/timer/TimerQueue.h</text>
</g>
<!-- src/tudou/reactor/EventLoop.h&#45;&gt;src/tudou/timer/TimerQueue.h -->
<g id="edge20" class="edge">
<title>src/tudou/reactor/EventLoop.h&#45;&gt;src/tudou/timer/TimerQueue.h</title>
<path fill="none" stroke="#475569" d="M767.7,-287.88C745.4,-278.14 718.49,-265.87 696.86,-255.61"/>
<polygon fill="#475569" stroke="#475569" points="697.87,-252.99 689.45,-252.07 695.46,-258.04 697.87,-252.99"/>
</g>
<!-- src/tudou/reactor/EventLoopThread.h -->
<g id="node13" class="node">
<title>src/tudou/reactor/EventLoopThread.h</title>
<path fill="#f8fafc" stroke="#64748b" d="M929.03,-396C929.03,-396 731.03,-396 731.03,-396 725.03,-396 719.03,-390 719.03,-384 719.03,-384 719.03,-372 719.03,-372 719.03,-366 725.03,-360 731.03,-360 731.03,-360 929.03,-360 929.03,-360 935.03,-360 941.03,-366 941.03,-372 941.03,-372 941.03,-384 941.03,-384 941.03,-390 935.03,-396 929.03,-396"/>
<text text-anchor="middle" x="830.03" y="-375.2" font-family="Helvetica,sans-Serif" font-size="11.00">src/tudou/reactor/EventLoopThread.h</text>
</g>
<!-- src/tudou/reactor/EventLoopThread.h&#45;&gt;src/tudou/reactor/EventLoop.h -->
<g id="edge21" class="edge">
<title>src/tudou/reactor/EventLoopThread.h&#45;&gt;src/tudou/reactor/EventLoop.h</title>
<path fill="none" stroke="#475569" d="M825.33,-359.7C823.06,-351.3 820.28,-341.07 817.78,-331.86"/>
<polygon fill="#475569" stroke="#475569" points="820.47,-331.09 815.67,-324.1 815.07,-332.56 820.47,-331.09"/>
</g>
<!-- src/tudou/reactor/EventLoopThreadPool.h -->
<g id="node14" class="node">
<title>src/tudou/reactor/EventLoopThreadPool.h</title>
<path fill="#f8fafc" stroke="#64748b" d="M914.53,-468C914.53,-468 693.53,-468 693.53,-468 687.53,-468 681.53,-462 681.53,-456 681.53,-456 681.53,-444 681.53,-444 681.53,-438 687.53,-432 693.53,-432 693.53,-432 914.53,-432 914.53,-432 920.53,-432 926.53,-438 926.53,-444 926.53,-444 926.53,-456 926.53,-456 926.53,-462 920.53,-468 914.53,-468"/>
<text text-anchor="middle" x="804.03" y="-447.2" font-family="Helvetica,sans-Serif" font-size="11.00">src/tudou/reactor/EventLoopThreadPool.h</text>
</g>
<!-- src/tudou/reactor/EventLoopThreadPool.h&#45;&gt;src/tudou/reactor/EventLoop.h -->
<g id="edge22" class="edge">
<title>src/tudou/reactor/EventLoopThreadPool.h&#45;&gt;src/tudou/reactor/EventLoop.h</title>
<path fill="none" stroke="#475569" d="M752.38,-431.96C735.89,-423.8 719.48,-412.18 710.03,-396 701.96,-382.18 701.75,-373.69 710.03,-360 718.53,-345.95 732.12,-335.44 746.61,-327.65"/>
<polygon fill="#475569" stroke="#475569" points="747.89,-330.14 753.78,-324.04 745.37,-325.14 747.89,-330.14"/>
</g>
<!-- src/tudou/reactor/EventLoopThreadPool.h&#45;&gt;src/tudou/reactor/EventLoopThread.h -->
<g id="edge23" class="edge">
<title>src/tudou/reactor/EventLoopThreadPool.h&#45;&gt;src/tudou/reactor/EventLoopThread.h</title>
<path fill="none" stroke="#475569" d="M810.46,-431.7C813.57,-423.3 817.38,-413.07 820.8,-403.86"/>
<polygon fill="#475569" stroke="#475569" points="823.52,-404.58 823.68,-396.1 818.27,-402.63 823.52,-404.58"/>
</g>
<!-- src/tudou/tcp/Acceptor.h -->
<g id="node15" class="node">
<title>src/tudou/tcp/Acceptor.h</title>
<path fill="#f8fafc" stroke="#64748b" d="M1299.03,-396C1299.03,-396 1171.03,-396 1171.03,-396 1165.03,-396 1159.03,-390 1159.03,-384 1159.03,-384 1159.03,-372 1159.03,-372 1159.03,-366 1165.03,-360 1171.03,-360 1171.03,-360 1299.03,-360 1299.03,-360 1305.03,-360 1311.03,-366 1311.03,-372 1311.03,-372 1311.03,-384 1311.03,-384 1311.03,-390 1305.03,-396 1299.03,-396"/>
<text text-anchor="middle" x="1235.03" y="-375.2" font-family="Helvetica,sans-Serif" font-size="11.00">src/tudou/tcp/Acceptor.h</text>
</g>
<!-- src/tudou/tcp/Acceptor.h&#45;&gt;src/tudou/reactor/Channel.h -->
<g id="edge24" class="edge">
<title>src/tudou/tcp/Acceptor.h&#45;&gt;src/tudou/reactor/Channel.h</title>
<path fill="none" stroke="#475569" d="M1221.87,-359.98C1196.05,-327.66 1135.54,-256.93 1070.03,-216 1047.58,-201.97 1020.89,-190.96 996.4,-182.7"/>
<polygon fill="#475569" stroke="#475569" points="997.01,-179.96 988.54,-180.12 995.26,-185.28 997.01,-179.96"/>
</g>
<!-- src/tudou/tcp/Acceptor.h&#45;&gt;src/tudou/reactor/EventLoop.h -->
<g id="edge25" class="edge">
<title>src/tudou/tcp/Acceptor.h&#45;&gt;src/tudou/reactor/EventLoop.h</title>
<path fill="none" stroke="#94a3b8" stroke-dasharray="5,2" d="M1158.6,-361.56C1155.71,-361.02 1152.84,-360.5 1150.03,-360 1070.01,-345.75 978.98,-331.63 911.41,-321.56"/>
<polygon fill="#94a3b8" stroke="#94a3b8" points="911.61,-318.75 903.29,-320.35 910.79,-324.29 911.61,-318.75"/>
</g>
<!-- src/tudou/tcp/InetAddress.h -->
<g id="node18" class="node">
<title>src/tudou/tcp/InetAddress.h</title>
<path fill="#f8fafc" stroke="#64748b" d="M1354.53,-108C1354.53,-108 1209.53,-108 1209.53,-108 1203.53,-108 1197.53,-102 1197.53,-96 1197.53,-96 1197.53,-84 1197.53,-84 1197.53,-78 1203.53,-72 1209.53,-72 1209.53,-72 1354.53,-72 1354.53,-72 1360.53,-72 1366.53,-78 1366.53,-84 1366.53,-84 1366.53,-96 1366.53,-96 1366.53,-102 1360.53,-108 1354.53,-108"/>
<text text-anchor="middle" x="1282.03" y="-87.2" font-family="Helvetica,sans-Serif" font-size="11.00">src/tudou/tcp/InetAddress.h</text>
</g>
<!-- src/tudou/tcp/Acceptor.h&#45;&gt;src/tudou/tcp/InetAddress.h -->
<g id="edge26" class="edge">
<title>src/tudou/tcp/Acceptor.h&#45;&gt;src/tudou/tcp/InetAddress.h</title>
<path fill="none" stroke="#475569" d="M1253.52,-359.71C1262.41,-350.14 1272.18,-337.48 1277.03,-324 1302.87,-252.27 1293.38,-159.89 1286.57,-116.13"/>
<polygon fill="#475569" stroke="#475569" points="1289.3,-115.49 1285.25,-108.05 1283.77,-116.39 1289.3,-115.49"/>
</g>
<!-- src/tudou/tcp/Acceptor.h&#45;&gt;src/tudou/tcp/Socket.h -->
<g id="edge27" class="edge">
<title>src/tudou/tcp/Acceptor.h&#45;&gt;src/tudou/tcp/Socket.h</title>
<path fill="none" stroke="#475569" d="M1234.53,-359.95C1232.98,-329.35 1226.67,-263.84 1201.03,-216 1195.04,-204.83 1185.99,-194.42 1177.1,-185.84"/>
<polygon fill="#475569" stroke="#475569" points="1178.79,-183.59 1171.01,-180.2 1174.98,-187.69 1178.79,-183.59"/>
</g>
<!-- src/tudou/tcp/Buffer.h -->
<g id="node16" class="node">
<title>src/tudou/tcp/Buffer.h</title>
<path fill="#f8fafc" stroke="#64748b" d="M1109.03,-324C1109.03,-324 997.03,-324 997.03,-324 991.03,-324 985.03,-318 985.03,-312 985.03,-312 985.03,-300 985.03,-300 985.03,-294 991.03,-288 997.03,-288 997.03,-288 1109.03,-288 1109.03,-288 1115.03,-288 1121.03,-294 1121.03,-300 1121.03,-300 1121.03,-312 1121.03,-312 1121.03,-318 1115.03,-324 1109.03,-324"/>
<text text-anchor="middle" x="1053.03" y="-303.2" font-family="Helvetica,sans-Serif" font-size="11.00">src/tudou/tcp/Buffer.h</text>
</g>
<!-- src/tudou/tcp/ConnectionHeartbeat.h -->
<g id="node17" class="node">
<title>src/tudou/tcp/ConnectionHeartbeat.h</title>
<path fill="#f8fafc" stroke="#64748b" d="M612.53,-468C612.53,-468 415.53,-468 415.53,-468 409.53,-468 403.53,-462 403.53,-456 403.53,-456 403.53,-444 403.53,-444 403.53,-438 409.53,-432 415.53,-432 415.53,-432 612.53,-432 612.53,-432 618.53,-432 624.53,-438 624.53,-444 624.53,-444 624.53,-456 624.53,-456 624.53,-462 618.53,-468 612.53,-468"/>
<text text-anchor="middle" x="514.03" y="-447.2" font-family="Helvetica,sans-Serif" font-size="11.00">src/tudou/tcp/ConnectionHeartbeat.h</text>
</g>
<!-- src/tudou/tcp/ConnectionHeartbeat.h&#45;&gt;src/tudou/reactor/EventLoop.h -->
<g id="edge28" class="edge">
<title>src/tudou/tcp/ConnectionHeartbeat.h&#45;&gt;src/tudou/reactor/EventLoop.h</title>
<path fill="none" stroke="#475569" d="M533.96,-431.71C557.61,-411.96 598.9,-379.82 639.03,-360 667.45,-345.96 700.35,-334.73 729.72,-326.28"/>
<polygon fill="#475569" stroke="#475569" points="730.57,-328.95 737.5,-324.08 729.04,-323.56 730.57,-328.95"/>
</g>
<!-- src/tudou/tcp/TcpConnection.h -->
<g id="node20" class="node">
<title>src/tudou/tcp/TcpConnection.h</title>
<path fill="#f8fafc" stroke="#64748b" d="M1129.03,-396C1129.03,-396 971.03,-396 971.03,-396 965.03,-396 959.03,-390 959.03,-384 959.03,-384 959.03,-372 959.03,-372 959.03,-366 965.03,-360 971.03,-360 971.03,-360 1129.03,-360 1129.03,-360 1135.03,-360 1141.03,-366 1141.03,-372 1141.03,-372 1141.03,-384 1141.03,-384 1141.03,-390 1135.03,-396 1129.03,-396"/>
<text text-anchor="middle" x="1050.03" y="-375.2" font-family="Helvetica,sans-Serif" font-size="11.00">src/tudou/tcp/TcpConnection.h</text>
</g>
<!-- src/tudou/tcp/ConnectionHeartbeat.h&#45;&gt;src/tudou/tcp/TcpConnection.h -->
<g id="edge29" class="edge">
<title>src/tudou/tcp/ConnectionHeartbeat.h&#45;&gt;src/tudou/tcp/TcpConnection.h</title>
<path fill="none" stroke="#475569" d="M624.88,-436.99C713.11,-427.08 839.68,-412.08 950.03,-396 950.3,-395.96 950.57,-395.92 950.84,-395.88"/>
<polygon fill="#475569" stroke="#475569" points="951.27,-398.65 958.77,-394.7 950.45,-393.11 951.27,-398.65"/>
</g>
<!-- src/tudou/tcp/ConnectionHeartbeat.h&#45;&gt;src/tudou/timer/Timer.h -->
<g id="edge30" class="edge">
<title>src/tudou/tcp/ConnectionHeartbeat.h&#45;&gt;src/tudou/timer/Timer.h</title>
<path fill="none" stroke="#475569" d="M515.46,-431.97C519.51,-383.7 531.08,-245.8 535.89,-188.47"/>
<polygon fill="#475569" stroke="#475569" points="538.7,-188.51 536.58,-180.31 533.12,-188.04 538.7,-188.51"/>
</g>
<!-- src/tudou/tcp/Socket.h&#45;&gt;src/base/ScopedFd.h -->
<g id="edge31" class="edge">
<title>src/tudou/tcp/Socket.h&#45;&gt;src/base/ScopedFd.h</title>
<path fill="none" stroke="#475569" d="M1078.81,-147.75C1013.71,-135.47 917.22,-117.26 851.19,-104.8"/>
<polygon fill="#475569" stroke="#475569" points="851.68,-102.05 843.3,-103.31 850.64,-107.55 851.68,-102.05"/>
</g>
<!-- src/tudou/tcp/Socket.h&#45;&gt;src/tudou/tcp/InetAddress.h -->
<g id="edge32" class="edge">
<title>src/tudou/tcp/Socket.h&#45;&gt;src/tudou/tcp/InetAddress.h</title>
<path fill="none" stroke="#475569" d="M1181.57,-143.88C1199.84,-134.26 1222.79,-122.18 1242.15,-111.99"/>
<polygon fill="#475569" stroke="#475569" points="1243.59,-114.39 1249.37,-108.19 1240.99,-109.44 1243.59,-114.39"/>
</g>
<!-- src/tudou/tcp/TcpConnection.h&#45;&gt;src/tudou/reactor/Channel.h -->
<g id="edge33" class="edge">
<title>src/tudou/tcp/TcpConnection.h&#45;&gt;src/tudou/reactor/Channel.h</title>
<path fill="none" stroke="#475569" d="M1012.64,-359.8C998.49,-351.2 983.9,-339.32 976.03,-324 968.72,-309.77 967.44,-301.5 976.03,-288 996.31,-256.13 1032.75,-283.87 1053.03,-252 1061.62,-238.5 1061.97,-229.27 1053.03,-216 1043.28,-201.53 1028.84,-191.02 1013.06,-183.37"/>
<polygon fill="#475569" stroke="#475569" points="1014.18,-180.8 1005.73,-180.05 1011.87,-185.9 1014.18,-180.8"/>
</g>
<!-- src/tudou/tcp/TcpConnection.h&#45;&gt;src/tudou/reactor/EventLoop.h -->
<g id="edge34" class="edge">
<title>src/tudou/tcp/TcpConnection.h&#45;&gt;src/tudou/reactor/EventLoop.h</title>
<path fill="none" stroke="#94a3b8" stroke-dasharray="5,2" d="M991.87,-359.97C957.31,-349.84 913.37,-336.97 877.45,-326.45"/>
<polygon fill="#94a3b8" stroke="#94a3b8" points="877.92,-323.67 869.45,-324.11 876.34,-329.05 877.92,-323.67"/>
</g>
<!-- src/tudou/tcp/TcpConnection.h&#45;&gt;src/tudou/tcp/Buffer.h -->
<g id="edge35" class="edge">
<title>src/tudou/tcp/TcpConnection.h&#45;&gt;src/tudou/tcp/Buffer.h</title>
<path fill="none" stroke="#475569" d="M1050.77,-359.7C1051.13,-351.39 1051.56,-341.28 1051.95,-332.14"/>
<polygon fill="#475569" stroke="#475569" points="1054.75,-332.22 1052.3,-324.1 1049.16,-331.98 1054.75,-332.22"/>
</g>
<!-- src/tudou/tcp/TcpConnection.h&#45;&gt;src/tudou/tcp/InetAddress.h -->
<g id="edge36" class="edge">
<title>src/tudou/tcp/TcpConnection.h&#45;&gt;src/tudou/tcp/InetAddress.h</title>
<path fill="none" stroke="#475569" d="M1095.36,-359.99C1114.18,-351.31 1135.26,-339.32 1151.03,-324 1214.93,-261.92 1256.66,-161.92 1273.54,-115.78"/>
<polygon fill="#475569" stroke="#475569" points="1276.24,-116.55 1276.31,-108.08 1270.97,-114.66 1276.24,-116.55"/>
</g>
<!-- src/tudou/tcp/TcpConnection.h&#45;&gt;src/tudou/tcp/Socket.h -->
<g id="edge37" class="edge">
<title>src/tudou/tcp/TcpConnection.h&#45;&gt;src/tudou/tcp/Socket.h</title>
<path fill="none" stroke="#475569" d="M1089.46,-359.94C1104.6,-351.37 1120.51,-339.47 1130.03,-324 1155.89,-281.97 1155.24,-221.99 1152.26,-188.36"/>
<polygon fill="#475569" stroke="#475569" points="1155.01,-187.69 1151.43,-180.01 1149.44,-188.25 1155.01,-187.69"/>
</g>
<!-- src/tudou/tcp/TcpServer.h&#45;&gt;src/tudou/reactor/EventLoop.h -->
<g id="edge38" class="edge">
<title>src/tudou/tcp/TcpServer.h&#45;&gt;src/tudou/reactor/EventLoop.h</title>
<path fill="none" stroke="#94a3b8" stroke-dasharray="5,2" d="M844.7,-509.42C775.54,-498.4 683.99,-481.53 673.03,-468 651.38,-441.28 693.09,-366.54 699.03,-360 711.82,-345.93 729.12,-335.26 746.3,-327.32"/>
<polygon fill="#94a3b8" stroke="#94a3b8" points="747.46,-329.87 753.64,-324.08 745.2,-324.74 747.46,-329.87"/>
</g>
<!-- src/tudou/tcp/TcpServer.h&#45;&gt;src/tudou/reactor/EventLoopThread.h -->
<g id="edge39" class="edge">
<title>src/tudou/tcp/TcpServer.h&#45;&gt;src/tudou/reactor/EventLoopThread.h</title>
<path fill="none" stroke="#475569" d="M931.77,-503.91C940.15,-484.93 949.66,-454.05 936.03,-432 927.29,-417.86 913.51,-407.37 898.75,-399.63"/>
<polygon fill="#475569" stroke="#475569" points="899.85,-397.05 891.44,-396.05 897.39,-402.08 899.85,-397.05"/>
</g>
<!-- src/tudou/tcp/TcpServer.h&#45;&gt;src/tudou/reactor/EventLoopThreadPool.h -->
<g id="edge40" class="edge">
<title>src/tudou/tcp/TcpServer.h&#45;&gt;src/tudou/reactor/EventLoopThreadPool.h</title>
<path fill="none" stroke="#475569" d="M893.92,-503.88C877.78,-494.38 857.57,-482.5 840.4,-472.4"/>
<polygon fill="#475569" stroke="#475569" points="841.57,-469.83 833.25,-468.19 838.73,-474.66 841.57,-469.83"/>
</g>
<!-- src/tudou/tcp/TcpServer.h&#45;&gt;src/tudou/tcp/Acceptor.h -->
<g id="edge41" class="edge">
<title>src/tudou/tcp/TcpServer.h&#45;&gt;src/tudou/tcp/Acceptor.h</title>
<path fill="none" stroke="#475569" d="M960.66,-503.87C1018.29,-477.64 1128.19,-427.63 1189.97,-399.51"/>
<polygon fill="#475569" stroke="#475569" points="1191.14,-402.05 1197.26,-396.19 1188.82,-396.95 1191.14,-402.05"/>
</g>
<!-- src/tudou/tcp/TcpServer.h&#45;&gt;src/tudou/tcp/ConnectionHeartbeat.h -->
<g id="edge42" class="edge">
<title>src/tudou/tcp/TcpServer.h&#45;&gt;src/tudou/tcp/ConnectionHeartbeat.h</title>
<path fill="none" stroke="#475569" d="M844.65,-507.59C781.34,-496.75 691.55,-481.38 621.52,-469.4"/>
<polygon fill="#475569" stroke="#475569" points="621.87,-466.62 613.52,-468.03 620.93,-472.14 621.87,-466.62"/>
</g>
<!-- src/tudou/tcp/TcpServer.h&#45;&gt;src/tudou/tcp/InetAddress.h -->
<g id="edge43" class="edge">
<title>src/tudou/tcp/TcpServer.h&#45;&gt;src/tudou/tcp/InetAddress.h</title>
<path fill="none" stroke="#475569" d="M1001.28,-510.58C1121.78,-492.31 1339.03,-449.59 1339.03,-379 1339.03,-379 1339.03,-379 1339.03,-233 1339.03,-188.86 1315.02,-142.2 1298.16,-114.89"/>
<polygon fill="#475569" stroke="#475569" points="1300.48,-113.31 1293.84,-108.04 1295.75,-116.3 1300.48,-113.31"/>
</g>
<!-- src/tudou/tcp/TcpServer.h&#45;&gt;src/tudou/tcp/TcpConnection.h -->
<g id="edge44" class="edge">
<title>src/tudou/tcp/TcpServer.h&#45;&gt;src/tudou/tcp/TcpConnection.h</title>
<path fill="none" stroke="#475569" d="M938.35,-503.87C961.04,-478.5 1003.65,-430.85 1029.17,-402.32"/>
<polygon fill="#475569" stroke="#475569" points="1031.41,-404.02 1034.66,-396.19 1027.24,-400.29 1031.41,-404.02"/>
</g>
<!-- src/tudou/timer/TimerQueue.h&#45;&gt;src/base/ScopedFd.h -->
<g id="edge45" class="edge">
<title>src/tudou/timer/TimerQueue.h&#45;&gt;src/base/ScopedFd.h</title>
<path fill="none" stroke="#475569" d="M672.5,-215.87C693.95,-190.5 734.21,-142.85 758.32,-114.32"/>
<polygon fill="#475569" stroke="#475569" points="760.48,-116.11 763.5,-108.19 756.2,-112.49 760.48,-116.11"/>
</g>
<!-- src/tudou/timer/TimerQueue.h&#45;&gt;src/tudou/reactor/Channel.h -->
<g id="edge46" class="edge">
<title>src/tudou/timer/TimerQueue.h&#45;&gt;src/tudou/reactor/Channel.h</title>
<path fill="none" stroke="#475569" d="M722.27,-215.97C760.76,-205.76 809.8,-192.76 849.66,-182.19"/>
<polygon fill="#475569" stroke="#475569" points="850.48,-184.87 857.5,-180.11 849.05,-179.45 850.48,-184.87"/>
</g>
<!-- src/tudou/timer/TimerQueue.h&#45;&gt;src/tudou/reactor/EventLoop.h -->
<g id="edge47" class="edge">
<title>src/tudou/timer/TimerQueue.h&#45;&gt;src/tudou/reactor/EventLoop.h</title>
<path fill="none" stroke="#94a3b8" stroke-dasharray="5,2" d="M701.23,-252.07C723.52,-261.8 750.43,-274.06 772.08,-284.33"/>
<polygon fill="#94a3b8" stroke="#94a3b8" points="771.07,-286.96 779.5,-287.88 773.49,-281.9 771.07,-286.96"/>
</g>
<!-- src/tudou/timer/TimerQueue.h&#45;&gt;src/tudou/timer/Timer.h -->
<g id="edge48" class="edge">
<title>src/tudou/timer/TimerQueue.h&#45;&gt;src/tudou/timer/Timer.h</title>
<path fill="none" stroke="#475569" d="M628.67,-215.88C612.4,-206.38 592.02,-194.5 574.71,-184.4"/>
<polygon fill="#475569" stroke="#475569" points="575.82,-181.8 567.5,-180.19 573,-186.64 575.82,-181.8"/>
</g>
</g>
</svg>
